<svg width="24" height="14" viewBox="0 0 24 14" fill="none" xmlns="http://www.w3.org/2000/svg">
<path d="M11.872 13L10.756 10.336H4.6L3.484 13H0.982L6.508 0.399999H9.01L14.464 13H11.872ZM5.464 8.266H9.892L7.696 2.974L5.464 8.266ZM23.8973 13H21.5933V11.83C20.9273 12.676 19.8473 13.108 18.4793 13.108C16.4093 13.108 15.1133 11.83 15.1133 10.12C15.1133 8.338 16.4273 7.24 18.7673 7.222H21.5753V6.97C21.5753 5.854 20.8373 5.188 19.3973 5.188C18.4973 5.188 17.5253 5.494 16.5353 6.088L15.6893 4.468C17.0753 3.694 18.1553 3.28 19.9193 3.28C22.4393 3.28 23.8613 4.558 23.8793 6.7L23.8973 13ZM19.0373 11.308C20.3873 11.308 21.4493 10.588 21.5753 9.652V8.788H19.1453C17.9033 8.788 17.3273 9.13 17.3273 9.976C17.3273 10.786 17.9753 11.308 19.0373 11.308Z" fill="#828385"/>
</svg>
