<svg width="18" height="18" viewBox="0 0 18 18" fill="none" xmlns="http://www.w3.org/2000/svg">
<mask id="mask0_29_957" style="mask-type:luminance" maskUnits="userSpaceOnUse" x="0" y="0" width="18" height="18">
<path d="M0 1.90735e-06H18V18H0V1.90735e-06Z" fill="white"/>
</mask>
<g mask="url(#mask0_29_957)">
<path d="M16.0312 14.625H1.96875V8.85938C1.96875 7.07309 3.41684 5.625 5.20312 5.625H12.7969C14.5832 5.625 16.0312 7.07309 16.0312 8.85938V14.625Z" stroke="#9EA0A0" stroke-width="1.5" stroke-miterlimit="10" stroke-linecap="round" stroke-linejoin="round"/>
<path d="M8.4375 14.625H1.96875V8.85938C1.96875 7.07309 3.41684 5.625 5.20312 5.625C6.98442 5.625 8.4375 7.06816 8.4375 8.85938V14.625Z" stroke="#9EA0A0" stroke-width="1.5" stroke-miterlimit="10" stroke-linecap="round" stroke-linejoin="round"/>
<path d="M10.6875 7.59375V0.527344H14.625L13.7812 1.96875L14.625 3.375H10.6875" stroke="#9EA0A0" stroke-width="1.5" stroke-miterlimit="10" stroke-linecap="round" stroke-linejoin="round"/>
<path d="M8.4375 17.4727V14.625H10.6875V17.4727" stroke="#9EA0A0" stroke-width="1.5" stroke-miterlimit="10" stroke-linecap="round" stroke-linejoin="round"/>
</g>
</svg>
